# xmcd
#
# Track frame offsets:
# 150
# 15325
# 29576
# 43903
# 57736
# 71876
# 85829
# 101426
# 116204
# 131617
# 144854
# 158503
#
# Disc length: 2340 seconds
#
# Revision: 0
# Processed by: cddbd v1.5.2PL0 Copyright (c) Steve Scherf et al.
# Submitted via: plextools 3.16
#
DISCID=a409220c
DTITLE=Joe Landry - It's Not the Same Good Morning
DYEAR=2009
DGENRE=Country
TTITLE0=Joe Landry - It's Not the Same Good Morning
TTITLE1=Joe Landry - Everything's Gonna Be Alright
TTITLE2=Joe Landry - Twenty Years
TTITLE3=Joe Landry - Drinkin' to Your Memory
TTITLE4=Joe Landry - My Home Town in Louisiana
TTITLE5=Joe Landry - Wolverton Mountain
TTITLE6=Joe Landry - Turn to Jesus
TTITLE7=Joe Landry - Someday When Things Are Good
TTITLE8=Joe Landry - Saddle Up and Ride
TTITLE9=Joe Landry - Love Baby Love
TTITLE10=Joe Landry - Sweet Temptation
TTITLE11=Joe Landry - Nighttime in the City
EXTD=
EXTT0=
EXTT1=
EXTT2=
EXTT3=
EXTT4=
EXTT5=
EXTT6=
EXTT7=
EXTT8=
EXTT9=
EXTT10=
EXTT11=
PLAYORDER=
